<svg viewBox="0 0 22 24" xmlns="http://www.w3.org/2000/svg"><path d="m21.146 10.227c0-.815-.658-1.478-1.476-1.478s-1.48.66-1.48 1.48v6.19c0 .81.663 1.48 1.483 1.48.814 0 1.476-.67 1.476-1.48v-6.2h-.01zm-16.753-1.195.004 9.6c0 .885.704 1.59 1.573 1.59h1.063v3.28c0 .82.66 1.482 1.47 1.482s1.467-.66 1.48-1.468v-3.28h1.993v3.28c0 .823.66 1.483 1.47 1.483.823 0 1.482-.66 1.482-1.49v-3.28h1.078c.87 0 1.573-.71 1.573-1.578v-9.63l-13.229.009.04.002zm9.648-2.93c-.31 0-.56-.25-.56-.56 0-.305.25-.558.56-.56.31 0 .56.255.56.56 0 .31-.25.56-.56.56zm-6.06 0c-.31 0-.56-.25-.56-.56 0-.307.25-.558.56-.558s.56.255.56.57-.223.548-.541.548zm7.309-4.772c.06-.105.014-.226-.076-.285-.104-.045-.224-.015-.284.09l-1.05 1.9c-.868-.405-1.856-.63-2.89-.63s-2.018.215-2.892.603l-1.034-1.903c-.053-.098-.18-.135-.278-.08-.1.045-.136.18-.08.27l1.03 1.875c-2.03 1.047-3.4 3.04-3.4 5.33h13.328c0-2.29-1.375-4.232-3.403-5.279zm-12.96 7.412c-.817 0-1.48.665-1.48 1.483v6.192c0 .82.664 1.48 1.484 1.48.814 0 1.477-.66 1.477-1.48v-6.19c0-.815-.66-1.478-1.47-1.478z" fill="#fff" transform="translate(0 -1)"/></svg>